<svg width="23" height="23" viewBox="0 0 23 23" fill="none" xmlns="http://www.w3.org/2000/svg">
<g opacity="0.7" clip-path="url(#clip0_531_146)">
<path d="M19.9419 19.4434L15.8035 15.2975L19.9419 19.4434ZM18.0969 9.75686C18.0969 11.8365 17.2707 13.831 15.8002 15.3016C14.3296 16.7722 12.3351 17.5983 10.2554 17.5983C8.17573 17.5983 6.18122 16.7722 4.71066 15.3016C3.24011 13.831 2.41396 11.8365 2.41396 9.75686C2.41396 7.67718 3.24011 5.68267 4.71066 4.21211C6.18122 2.74156 8.17573 1.91541 10.2554 1.91541C12.3351 1.91541 14.3296 2.74156 15.8002 4.21211C17.2707 5.68267 18.0969 7.67718 18.0969 9.75686V9.75686Z" stroke="white" stroke-width="2.21406" stroke-linecap="round"/>
</g>
<defs>
<clipPath id="clip0_531_146">
<rect width="22.1406" height="22.1406" fill="white" transform="translate(0.568787 0.0703735)"/>
</clipPath>
</defs>
</svg>
