<svg width="28" height="28" viewBox="0 0 28 28" fill="none" xmlns="http://www.w3.org/2000/svg">
<path d="M24.0282 9.85781L17.4405 8.90041L14.4956 2.93023C14.4152 2.76677 14.2829 2.63445 14.1194 2.55402C13.7095 2.35164 13.2113 2.52029 13.0063 2.93023L10.0614 8.90041L3.47376 9.85781C3.29214 9.88376 3.12608 9.96938 2.99895 10.0991C2.84525 10.2571 2.76055 10.4696 2.76347 10.69C2.76639 10.9104 2.85668 11.1206 3.01451 11.2745L7.78079 15.9214L6.65474 22.4831C6.62833 22.6358 6.64522 22.7928 6.7035 22.9363C6.76177 23.0798 6.85909 23.2041 6.98443 23.2952C7.10977 23.3862 7.2581 23.4403 7.41262 23.4513C7.56713 23.4623 7.72165 23.4298 7.85863 23.3575L13.751 20.2596L19.6433 23.3575C19.8042 23.4431 19.991 23.4717 20.17 23.4405C20.6215 23.3627 20.925 22.9346 20.8472 22.4831L19.7211 15.9214L24.4874 11.2745C24.6172 11.1473 24.7028 10.9813 24.7287 10.7997C24.7988 10.3456 24.4822 9.92527 24.0282 9.85781Z" fill="black"/>
</svg>
