<svg width="28" height="27" viewBox="0 0 28 27" fill="none" xmlns="http://www.w3.org/2000/svg">
<g opacity="0.5">
<path d="M25.1365 11.9847L20.4521 11.263L17.5973 6.59949C17.4475 6.35539 17.2372 6.1541 16.9867 6.01509C16.7363 5.87609 16.4542 5.80407 16.1678 5.80601L4.2037 5.90133C3.85849 5.90425 3.52277 6.01462 3.24318 6.21711C2.96358 6.4196 2.75401 6.70415 2.64357 7.03123L1.284 11.0628V20.332H4.13837C4.36026 21.0533 4.80756 21.6844 5.41458 22.1328C6.02161 22.5811 6.75638 22.8231 7.51104 22.8231C8.26569 22.8231 9.00047 22.5811 9.60749 22.1328C10.2145 21.6844 10.6618 21.0533 10.8837 20.332H16.1773C16.3992 21.0533 16.8465 21.6844 17.4535 22.1328C18.0605 22.5811 18.7953 22.8231 19.55 22.8231C20.3046 22.8231 21.0394 22.5811 21.6464 22.1328C22.2535 21.6844 22.7008 21.0533 22.9226 20.332H26.1922V13.2156C26.1935 12.9178 26.0876 12.6295 25.8937 12.4034C25.6998 12.1774 25.431 12.0288 25.1365 11.9847ZM12.0775 7.49909L16.181 7.4664L18.4695 11.2051L12.0775 11.2028V7.49909ZM4.21698 7.56177L10.417 7.51237V11.2023L2.99026 11.1996L4.21698 7.56177ZM7.51104 21.1622C7.14156 21.1622 6.78038 21.0527 6.47317 20.8474C6.16596 20.6421 5.92652 20.3504 5.78513 20.009C5.64373 19.6677 5.60674 19.2921 5.67882 18.9297C5.7509 18.5673 5.92882 18.2344 6.19008 17.9732C6.45134 17.7119 6.78421 17.534 7.14658 17.4619C7.50896 17.3898 7.88458 17.4268 8.22593 17.5682C8.56728 17.7096 8.85904 17.9491 9.06431 18.2563C9.26958 18.5635 9.37915 18.9247 9.37915 19.2941C9.3786 19.7894 9.1816 20.2643 8.83138 20.6145C8.48116 20.9647 8.00632 21.1617 7.51104 21.1622ZM19.55 21.1622C19.1805 21.1622 18.8193 21.0527 18.5121 20.8474C18.2049 20.6421 17.9655 20.3504 17.8241 20.009C17.6827 19.6677 17.6457 19.2921 17.7178 18.9297C17.7898 18.5673 17.9678 18.2344 18.229 17.9732C18.4903 17.7119 18.8231 17.534 19.1855 17.4619C19.5479 17.3898 19.9235 17.4268 20.2649 17.5682C20.6062 17.7096 20.898 17.9491 21.1033 18.2563C21.3085 18.5635 21.4181 18.9247 21.4181 19.2941C21.4175 19.7894 21.2205 20.2643 20.8703 20.6145C20.5201 20.9647 20.0453 21.1617 19.55 21.1622ZM24.5316 18.6714H23.0225C22.8766 17.8566 22.4488 17.119 21.814 16.5878C21.1792 16.0565 20.3778 15.7654 19.55 15.7654C18.7222 15.7654 17.9208 16.0565 17.2859 16.5878C16.6511 17.119 16.2234 17.8566 16.0775 18.6714H10.9835C10.8377 17.8566 10.4099 17.119 9.77506 16.5878C9.14025 16.0565 8.33882 15.7654 7.51104 15.7654C6.68325 15.7654 5.88183 16.0565 5.24701 16.5878C4.61219 17.119 4.18441 17.8566 4.03853 18.6714H2.94454V12.8609L20.0962 12.8883L24.5316 13.5717V18.6714Z" fill="black" stroke="black" stroke-width="0.553515"/>
</g>
</svg>
