<svg width="27" height="28" viewBox="0 0 27 28" fill="none" xmlns="http://www.w3.org/2000/svg">
<g clip-path="url(#clip0_531_288)">
<path d="M24.8505 0.920654H2.11415C1.05584 0.920654 0.197998 1.77849 0.197998 2.83681V25.5732C0.197998 26.6315 1.05584 27.4894 2.11415 27.4894H14.3905V17.2147H10.9396V13.1931H14.3905V10.2334C14.3905 6.80127 16.4858 4.93316 19.5474 4.93316C21.0138 4.93316 22.274 5.04242 22.6413 5.09127V8.67851H20.5301C18.8643 8.67851 18.5418 9.47006 18.5418 10.6318V13.1931H22.5245L22.0056 17.2147H18.5418V27.4894H24.8505C25.9089 27.4894 26.7667 26.6315 26.7667 25.5732V2.83681C26.7667 1.77849 25.9089 0.920654 24.8505 0.920654V0.920654Z" fill="#808080"/>
</g>
<defs>
<clipPath id="clip0_531_288">
<rect width="26.5687" height="26.5687" fill="white" transform="translate(0.197998 0.920654)"/>
</clipPath>
</defs>
</svg>
