<svg width="23" height="23" viewBox="0 0 23 23" fill="none" xmlns="http://www.w3.org/2000/svg">
<g opacity="0.7" clip-path="url(#clip0_531_162)">
<path d="M14.4353 15.411C14.3782 14.636 14.3622 13.8584 14.3873 13.0817L14.3864 13.1158C15.0806 12.3962 15.5136 11.4646 15.6161 10.47L15.618 10.4506C15.9307 10.4248 16.4242 10.1204 16.5682 8.91369C16.6116 8.70588 16.5952 8.49 16.5209 8.29112C16.4466 8.09224 16.3175 7.9185 16.1484 7.79006L16.1456 7.78821C16.6549 6.25682 17.7121 1.51874 14.189 1.0298C13.8264 0.393257 12.8983 0.0703735 11.6917 0.0703735C6.86412 0.158936 6.28201 3.71527 7.33737 7.78821C7.16697 7.91783 7.03699 8.09329 6.96266 8.29408C6.88833 8.49486 6.8727 8.71266 6.91762 8.92199L6.9167 8.91461C7.06431 10.1194 7.55417 10.4257 7.8669 10.4515C7.9766 11.4572 8.42334 12.3962 9.13445 13.1158C9.15784 13.9062 9.13998 14.6972 9.08094 15.4858L9.08556 15.411C8.12798 17.9793 1.68138 17.2579 1.38617 22.211H22.1042C21.8072 17.2579 15.3901 17.9793 14.4344 15.411H14.4353Z" fill="white"/>
</g>
<defs>
<clipPath id="clip0_531_162">
<rect width="22.1406" height="22.1406" fill="white" transform="translate(0.279114 0.0703735)"/>
</clipPath>
</defs>
</svg>
