<svg width="1439" height="36" viewBox="0 0 1439 36" fill="none" xmlns="http://www.w3.org/2000/svg">
<g clip-path="url(#clip0_564_1896)">
<g opacity="0.4">
<path d="M1414.59 3.73168C1414.17 4.14688 1413.94 4.70993 1413.94 5.29702C1413.94 5.88411 1414.17 6.44716 1414.59 6.86236L1425.55 17.8219L1414.59 28.7815C1414.18 29.1991 1413.96 29.7584 1413.97 30.3389C1413.97 30.9194 1414.2 31.4747 1414.62 31.8852C1415.03 32.2957 1415.58 32.5286 1416.16 32.5336C1416.74 32.5387 1417.3 32.3155 1417.72 31.9122L1430.24 19.3873C1430.66 18.9721 1430.89 18.409 1430.89 17.8219C1430.89 17.2349 1430.66 16.6718 1430.24 16.2566L1417.72 3.73168C1417.3 3.31661 1416.74 3.08344 1416.15 3.08344C1415.57 3.08344 1415 3.31661 1414.59 3.73168Z" fill="white"/>
</g>
</g>
<defs>
<clipPath id="clip0_564_1896">
<rect width="1438.29" height="35.4249" fill="white" transform="translate(0 0.109436)"/>
</clipPath>
</defs>
</svg>
