<svg width="28" height="27" viewBox="0 0 28 27" fill="none" xmlns="http://www.w3.org/2000/svg">
<g opacity="0.5" clip-path="url(#clip0_1_3483)">
<path d="M22.1877 18.5984L23.6249 19.0475V17.5418V15.6159V15.0023L23.1046 14.6771L15.9213 10.1875V5.50485C15.9213 4.09421 14.7805 2.9534 13.3698 2.9534C11.9592 2.9534 10.8184 4.09421 10.8184 5.50485V10.1875L3.63506 14.6771L3.11476 15.0023V15.6159V17.5418V19.0475L4.55199 18.5984L10.8184 16.6401V19.8771L9.33528 20.9894L8.89247 21.3215V21.875V23.3195V24.7871L10.3036 24.3839L13.3698 23.5078L16.436 24.3839L17.8472 24.7871V23.3195V21.875V21.3215L17.4044 20.9894L15.9213 19.8771V16.6401L22.1877 18.5984Z" fill="white" stroke="black" stroke-width="2.21406"/>
</g>
<defs>
<clipPath id="clip0_1_3483">
<rect width="26.5687" height="26.5687" fill="white" transform="translate(0.639008 0.405579)"/>
</clipPath>
</defs>
</svg>
