<svg width="27" height="27" viewBox="0 0 27 27" fill="none" xmlns="http://www.w3.org/2000/svg">
<g opacity="0.5">
<path d="M20.3228 11.4759L17.0017 13.1364L12.5736 9.81533L11.4665 15.904L15.3411 19.2251L15.8947 24.2067M20.3228 9.81533V24.2067M11.4665 19.2251L9.25248 24.2067M9.80599 9.81533C8.14545 10.9224 7.03842 13.6899 7.03842 13.6899L9.25248 14.797M13.6806 7.60127C14.2678 7.60127 14.831 7.36801 15.2462 6.95279C15.6614 6.53757 15.8947 5.97442 15.8947 5.38722C15.8947 4.80001 15.6614 4.23686 15.2462 3.82164C14.831 3.40642 14.2678 3.17316 13.6806 3.17316C13.0934 3.17316 12.5302 3.40642 12.115 3.82164C11.6998 4.23686 11.4665 4.80001 11.4665 5.38722C11.4665 5.97442 11.6998 6.53757 12.115 6.95279C12.5302 7.36801 13.0934 7.60127 13.6806 7.60127Z" stroke="black" stroke-width="2.21406" stroke-linecap="round" stroke-linejoin="round"/>
</g>
</svg>
