<svg width="28" height="28" viewBox="0 0 28 28" fill="none" xmlns="http://www.w3.org/2000/svg">
<g clip-path="url(#clip0_531_287)">
<path d="M26.0554 1.92406C25.3865 1.25502 24.585 0.920654 23.6512 0.920654H3.89747C2.96337 0.920654 2.16207 1.25514 1.49303 1.92406C0.824115 2.5928 0.489746 3.39422 0.489746 4.32814V24.0817C0.489746 25.0155 0.824054 25.8171 1.49303 26.4859C2.16207 27.1547 2.96355 27.4894 3.89747 27.4894H23.651C24.5846 27.4894 25.3864 27.1547 26.0552 26.4859C26.7243 25.8171 27.0583 25.0155 27.0583 24.0817V4.32814C27.0583 3.39404 26.7243 2.59304 26.0554 1.92406ZM10.0295 10.4946C11.073 9.48574 12.3271 8.98106 13.7917 8.98106C15.2675 8.98106 16.5273 9.48574 17.571 10.4946C18.6148 11.5036 19.1364 12.7232 19.1364 14.1531C19.1364 15.5828 18.6148 16.8024 17.571 17.8111C16.5273 18.8204 15.2679 19.325 13.7917 19.325C12.3272 19.325 11.0732 18.82 10.0295 17.8111C8.98576 16.8023 8.46394 15.5828 8.46394 14.1531C8.46394 12.7232 8.98576 11.5037 10.0295 10.4946ZM24.0491 23.3728C24.0491 23.6724 23.945 23.9231 23.7376 24.125C23.5296 24.3268 23.2821 24.4277 22.9935 24.4277H4.50296C4.20318 24.4277 3.95218 24.3268 3.75055 24.125C3.54862 23.9235 3.44775 23.6724 3.44775 23.3728V12.1637H5.8866C5.65607 12.8903 5.54078 13.6457 5.54078 14.4297C5.54078 16.6443 6.34789 18.5322 7.9623 20.0951C9.57689 21.6573 11.5199 22.4388 13.7916 22.4388C15.2907 22.4388 16.6744 22.0812 17.9433 21.3663C19.2118 20.6509 20.2144 19.6796 20.9529 18.4514C21.691 17.2232 22.0601 15.8826 22.0601 14.4298C22.0601 13.6458 21.9443 12.8906 21.7138 12.1638H24.0492V23.3728H24.0491V23.3728ZM24.0491 7.92585C24.0491 8.26028 23.9338 8.54285 23.7028 8.77344C23.4722 9.00421 23.1898 9.11944 22.8552 9.11944H19.8456C19.5114 9.11944 19.2286 9.00415 18.998 8.77344C18.7674 8.54285 18.6522 8.26028 18.6522 7.92585V5.07206C18.6522 4.74914 18.7674 4.46954 18.998 4.23308C19.2286 3.99674 19.5114 3.87841 19.8456 3.87841H22.8552C23.1898 3.87841 23.4723 3.99668 23.7028 4.23308C23.9337 4.46954 24.0491 4.74914 24.0491 5.07206V7.92585Z" fill="#808080"/>
</g>
<defs>
<clipPath id="clip0_531_287">
<rect width="26.5687" height="26.5687" fill="white" transform="translate(0.48877 0.920654)"/>
</clipPath>
</defs>
</svg>
