<svg width="27" height="27" viewBox="0 0 27 27" fill="none" xmlns="http://www.w3.org/2000/svg">
<g opacity="0.5">
<path d="M24.401 23.6531H2.26042V21.439H3.36745V4.83359C3.36745 4.53999 3.48408 4.25841 3.69169 4.0508C3.8993 3.8432 4.18088 3.72656 4.47448 3.72656H19.9729C20.2665 3.72656 20.5481 3.8432 20.7557 4.0508C20.9633 4.25841 21.0799 4.53999 21.0799 4.83359V10.3687H23.294V21.439H24.401V23.6531ZM18.8659 21.439H21.0799V12.5828H14.4377V21.439H16.6518V14.7969H18.8659V21.439ZM18.8659 10.3687V5.94062H5.58151V21.439H12.2237V10.3687H18.8659ZM7.79557 12.5828H10.0096V14.7969H7.79557V12.5828ZM7.79557 17.0109H10.0096V19.225H7.79557V17.0109ZM7.79557 8.15468H10.0096V10.3687H7.79557V8.15468Z" fill="black"/>
</g>
</svg>
