<svg width="28" height="28" viewBox="0 0 28 28" fill="none" xmlns="http://www.w3.org/2000/svg">
<g clip-path="url(#clip0_531_290)">
<path d="M27.1853 5.96695C26.1973 6.40036 25.1445 6.68763 24.0468 6.82711C25.176 6.15293 26.0378 5.09351 26.443 3.81655C25.3902 4.44423 24.2278 4.8876 22.9891 5.13502C21.9894 4.07061 20.5647 3.41138 19.0104 3.41138C15.9949 3.41138 13.5672 5.85902 13.5672 8.85962C13.5672 9.29136 13.6037 9.7065 13.6934 10.1017C9.16506 9.88085 5.15816 7.71052 2.46642 4.40438C1.99649 5.21971 1.72084 6.15293 1.72084 7.15756C1.72084 9.04394 2.69226 10.7161 4.14025 11.6842C3.26514 11.6676 2.40664 11.4135 1.67933 11.0133C1.67933 11.03 1.67933 11.0515 1.67933 11.0731C1.67933 13.72 3.56736 15.9186 6.04323 16.4251C5.59987 16.5463 5.11665 16.6044 4.61517 16.6044C4.26645 16.6044 3.91442 16.5845 3.58397 16.5114C4.2897 18.6685 6.29232 20.2543 8.67354 20.3057C6.82037 21.7554 4.46738 22.6288 1.9201 22.6288C1.47342 22.6288 1.045 22.6089 0.616577 22.5541C3.02935 24.1101 5.8888 24.9984 8.97243 24.9984C18.9955 24.9984 24.4753 16.6957 24.4753 9.49893C24.4753 9.25815 24.467 9.02567 24.4553 8.79486C25.5364 8.02769 26.4447 7.06955 27.1853 5.96695Z" fill="#808080"/>
</g>
<defs>
<clipPath id="clip0_531_290">
<rect width="26.5687" height="26.5687" fill="white" transform="translate(0.616577 0.920654)"/>
</clipPath>
</defs>
</svg>
