<svg width="28" height="28" viewBox="0 0 28 28" fill="none" xmlns="http://www.w3.org/2000/svg">
<g clip-path="url(#clip0_531_289)">
<path d="M26.3469 6.8322C25.6262 5.55026 24.8441 5.31446 23.2516 5.22479C21.6608 5.11686 17.6606 5.07202 14.195 5.07202C10.7228 5.07202 6.72091 5.11686 5.13177 5.22313C3.54263 5.31446 2.75885 5.5486 2.03154 6.8322C1.28927 8.11248 0.907349 10.3177 0.907349 14.2C0.907349 14.2034 0.907349 14.205 0.907349 14.205C0.907349 14.2083 0.907349 14.21 0.907349 14.21V14.2133C0.907349 18.0791 1.28927 20.3009 2.03154 21.5679C2.75885 22.8498 3.54097 23.0823 5.13011 23.1902C6.72091 23.2832 10.7228 23.338 14.195 23.338C17.6606 23.338 21.6608 23.2832 23.2533 23.1919C24.8457 23.0839 25.6279 22.8515 26.3485 21.5695C27.0974 20.3025 27.476 18.0807 27.476 14.215C27.476 14.215 27.476 14.21 27.476 14.2067C27.476 14.2067 27.476 14.2034 27.476 14.2017C27.476 10.3177 27.0974 8.11248 26.3469 6.8322ZM10.8706 19.1866V9.22338L19.1733 14.205L10.8706 19.1866Z" fill="#808080"/>
</g>
<defs>
<clipPath id="clip0_531_289">
<rect width="26.5687" height="26.5687" fill="white" transform="translate(0.907349 0.920654)"/>
</clipPath>
</defs>
</svg>
